<svg width="189" height="237" viewBox="0 0 189 237" fill="none" xmlns="http://www.w3.org/2000/svg">
<path fill-rule="evenodd" clip-rule="evenodd" d="M82.667 2.46872C85.451 3.90872 85.617 3.88372 85.617 2.02572C85.617 0.563719 86.158 0.161715 87.719 0.462715C88.875 0.684715 90.45 1.38972 91.219 2.02772C92.319 2.93972 92.617 2.84172 92.617 1.56472C92.617 -0.76828 94.346 -0.432285 95.74 2.17171L96.933 4.40172L97.928 2.17171C99.161 -0.591285 100.287 -0.672282 101.117 1.94272C101.9 4.40872 103.18 4.51672 104.081 2.19272C104.723 0.537719 104.832 0.541716 106.092 2.25272C106.933 3.39372 107.667 3.67072 108.08 3.00272C109.302 1.02572 110.765 1.89972 110.072 4.19272C109.517 6.02872 109.634 6.21272 110.705 5.19272C112.327 3.64672 114.988 3.53372 114.051 5.04972C113.572 5.82372 114.351 5.94072 116.642 5.43772C119.406 4.82972 119.821 4.96972 119.299 6.33072C118.8 7.62872 119.377 7.94272 122.255 7.94272C125.023 7.94272 125.701 8.28172 125.255 9.44272C124.822 10.5727 125.427 10.9427 127.707 10.9427C129.373 10.9427 130.477 11.3607 130.161 11.8717C129.846 12.3817 130.607 12.9447 131.852 13.1217C133.368 13.3367 134.02 14.0217 133.823 15.1927C133.621 16.3977 134.184 16.9427 135.632 16.9427C136.789 16.9427 137.457 17.3927 137.117 17.9427C136.777 18.4927 137.474 18.9427 138.665 18.9427C140.136 18.9427 140.654 19.4027 140.28 20.3777C139.977 21.1677 140.267 22.0317 140.923 22.2987C141.58 22.5667 140.628 22.8207 138.808 22.8637C136.84 22.9107 135.749 22.5377 136.117 21.9427C136.457 21.3927 135.985 20.9427 135.069 20.9427C133.999 20.9427 133.609 20.4057 133.979 19.4427C134.394 18.3587 133.869 17.9427 132.086 17.9427C130.558 17.9427 129.617 17.3707 129.617 16.4427C129.617 15.5097 128.673 14.9427 127.117 14.9427C125.65 14.9427 124.72 14.4257 124.867 13.6927C125.008 12.9877 123.91 12.3037 122.35 12.1247C120.661 11.9307 119.845 11.3817 120.256 10.7167C120.694 10.0087 120.192 9.82072 118.821 10.1787C117.662 10.4827 116.552 10.2467 116.355 9.65672C115.91 8.32071 112.617 9.47772 112.617 10.9707C112.617 11.5697 113.067 11.7827 113.617 11.4427C114.167 11.1027 114.617 11.5567 114.617 12.4507C114.617 13.6547 115.17 13.9017 116.742 13.4027C118.172 12.9487 118.644 13.0907 118.183 13.8357C117.74 14.5527 118.576 14.9427 120.558 14.9427C122.415 14.9427 123.519 15.4157 123.367 16.1477C123.229 16.8097 123.671 17.3727 124.348 17.3977C125.025 17.4227 126.288 18.4557 127.154 19.6927C128.058 20.9817 129.774 21.9427 131.174 21.9427C133.983 21.9427 134.472 23.5727 131.867 24.2537C130.79 24.5347 131.175 24.7557 132.867 24.8267C134.611 24.9007 135.617 25.4987 135.617 26.4637C135.617 27.3007 136.728 28.4917 138.086 29.1107C139.443 29.7287 140.346 30.5727 140.091 30.9837C139.837 31.3957 140.401 32.0297 141.345 32.3917C142.816 32.9557 142.851 33.1837 141.589 33.9807C140.332 34.7757 140.356 34.9147 141.756 34.9277C142.658 34.9357 144.651 36.5177 146.186 38.4427C149.213 42.2387 151.345 43.1707 149.617 39.9427C148.805 38.4267 148.857 37.9337 149.832 37.9077C150.539 37.8877 150.09 37.3017 148.836 36.6057C147.581 35.9087 146.868 35.0247 147.252 34.6407C147.636 34.2567 147.406 33.9427 146.74 33.9427C146.074 33.9427 145.602 33.3807 145.692 32.6927C146.053 29.9067 145.52 28.9427 143.617 28.9427C142.506 28.9427 141.617 28.2757 141.617 27.4427C141.617 26.6177 140.942 25.9427 140.117 25.9427C138.642 25.9427 137.902 23.9557 139.367 23.9287C139.779 23.9217 141.136 23.6427 142.382 23.3087C144.183 22.8257 144.52 23.0327 144.025 24.3217C143.567 25.5157 143.987 25.9427 145.617 25.9427C147.109 25.9427 147.655 26.4017 147.291 27.3497C146.949 28.2417 147.829 29.2017 149.7 29.9777C152.361 31.0797 152.483 31.3197 150.949 32.4417C149.405 33.5707 149.509 33.8217 152.075 35.1667C153.957 36.1527 154.504 36.8947 153.711 37.3847C152.19 38.3247 154.141 40.9427 156.362 40.9427C157.539 40.9427 157.61 41.2457 156.692 42.3527C155.763 43.4717 155.996 44.1007 157.819 45.4017C160.025 46.9767 160.043 47.0967 158.27 48.4237C156.489 49.7557 156.498 49.8517 158.52 51.1147C161.024 52.6777 161.236 53.9427 158.995 53.9427C157.666 53.9427 157.597 54.2137 158.617 55.4427C159.302 56.2677 160.482 56.9427 161.239 56.9427C163.109 56.9427 162.989 58.8627 161.074 59.5977C159.695 60.1267 159.703 60.3807 161.147 61.9757C162.638 63.6237 162.628 63.8367 161.02 64.7377C159.411 65.6377 159.443 65.8177 161.447 67.0687C164.159 68.7617 164.229 69.9427 161.617 69.9427C158.844 69.9427 159.113 71.7557 162.086 73.1107C164.897 74.3907 164.523 75.9427 161.403 75.9427C159.409 75.9427 159.39 76.0347 161.023 77.8387C162.344 79.2987 162.437 79.8367 161.428 80.1767C160.363 80.5347 160.356 80.9067 161.393 82.1637C162.44 83.4327 162.399 83.8127 161.159 84.2877C160.295 84.6197 159.903 85.5237 160.241 86.4047C160.632 87.4237 160.247 87.9427 159.102 87.9427C157.605 87.9427 157.557 88.1667 158.745 89.6057C159.848 90.9427 159.864 91.3527 158.825 91.7027C157.833 92.0367 157.803 92.4627 158.698 93.5397C159.59 94.6157 159.573 94.9427 158.623 94.9427C157.876 94.9427 157.592 95.7377 157.907 96.9427C158.288 98.3997 157.937 98.9427 156.617 98.9427C155.297 98.9427 154.946 99.4857 155.327 100.943C155.642 102.148 155.358 102.943 154.611 102.943C153.674 102.943 153.65 103.278 154.512 104.316C155.139 105.072 155.393 106.363 155.077 107.187C154.751 108.036 155.177 108.944 156.06 109.283C156.916 109.611 157.617 110.554 157.617 111.376C157.617 112.199 158.517 113.354 159.617 113.943C160.717 114.532 161.617 115.756 161.617 116.664C161.617 117.571 162.595 119.356 163.791 120.629C165.359 122.297 165.568 122.953 164.541 122.979C163.698 123 164.34 124.058 166.117 125.573C168.071 127.239 168.679 128.302 167.861 128.622C166.944 128.981 167.143 129.796 168.598 131.646C169.693 133.039 170.339 134.584 170.032 135.081C169.725 135.578 170.634 137.363 172.052 139.048C173.47 140.733 174.353 142.561 174.014 143.109C173.676 143.657 174.622 145.382 176.117 146.943C177.65 148.543 178.522 150.287 178.117 150.943C177.712 151.599 178.592 153.351 180.138 154.965C181.663 156.556 182.63 158.468 182.319 159.277C182.009 160.084 182.846 161.749 184.202 163.023C185.829 164.551 186.31 165.65 185.644 166.316C184.978 166.982 185.21 167.941 186.341 169.19C187.778 170.778 187.82 171.199 186.617 171.943C185.415 172.686 185.459 173.111 186.907 174.711C188.701 176.694 189.229 179.943 187.756 179.943C187.282 179.943 187.111 181.078 187.377 182.466C187.731 184.322 187.126 185.669 185.087 187.558C182.751 189.724 181.947 189.959 179.966 189.056C178.285 188.29 177.617 188.295 177.617 189.073C177.617 189.736 176.632 189.913 175.092 189.526C172.79 188.948 172.622 189.116 173.2 191.418C173.609 193.046 173.416 193.943 172.658 193.943C171.937 193.943 171.728 194.717 172.117 195.943C172.5 197.149 172.297 197.943 171.605 197.943C170.851 197.943 170.684 198.971 171.117 200.943C171.532 202.83 171.376 203.943 170.696 203.943C170.103 203.943 169.617 204.528 169.617 205.244C169.617 207.539 167.158 211.927 165.867 211.935C165.18 211.939 164.617 212.843 164.617 213.943C164.617 215.276 163.95 215.943 162.617 215.943C161.517 215.943 160.617 216.425 160.617 217.014C160.617 218.761 157.912 220.943 155.747 220.943C154.641 220.943 153.438 221.424 153.075 222.011C152.712 222.599 151.83 222.855 151.114 222.58C150.381 222.299 149.579 222.979 149.275 224.142C148.924 225.485 148.204 225.999 147.209 225.617C146.368 225.294 145.391 225.5 145.036 226.074C144.681 226.648 143.542 226.895 142.504 226.624C141.409 226.337 140.617 226.647 140.617 227.362C140.617 228.762 137.114 232.181 134.09 233.734C130.935 235.354 116.402 237.128 115.302 236.028C114.773 235.499 111.325 235.335 107.486 235.657C101.005 236.201 100.617 236.115 100.617 234.147C100.617 231.371 99.015 230.51 93.617 230.386C91.142 230.329 86.584 229.936 83.488 229.513C79.804 229.009 77.633 229.108 77.206 229.799C76.847 230.38 75.928 230.616 75.163 230.322C74.399 230.029 72.907 230.252 71.849 230.819C68.784 232.459 52.411 234.227 51.652 233C51.041 232.01 43.976 231.556 38.617 232.161C36.205 232.433 36.118 232.241 36.142 226.693C36.156 223.53 35.819 220.943 35.392 220.943C34.966 220.943 34.617 220.238 34.617 219.376C34.617 218.263 34.036 217.993 32.617 218.443C31.189 218.896 30.617 218.623 30.617 217.486C30.617 216.61 29.531 215.48 28.203 214.976C26.875 214.471 25.486 213.106 25.117 211.943C24.748 210.78 23.359 209.415 22.031 208.91C20.199 208.214 19.617 207.249 19.617 204.909C19.617 203.093 19.203 202.081 18.61 202.447C18.056 202.79 17.296 202.254 16.922 201.256C16.547 200.259 15.538 198.917 14.679 198.274C13.381 197.302 13.314 196.584 14.28 194.024C15.238 191.488 15.193 190.943 14.03 190.943C12.058 190.943 12.263 189.948 14.791 187.257C16.638 185.292 16.713 184.943 15.291 184.943C13.303 184.943 13.143 183.844 14.867 182.021C15.895 180.933 15.747 180.888 14.026 181.77C12.877 182.36 11.077 182.805 10.026 182.759C8.97604 182.713 7.32904 183.009 6.36704 183.416C5.30804 183.864 4.61704 183.72 4.61704 183.05C4.61704 182.441 3.71704 181.943 2.61704 181.943C1.51704 181.943 0.596043 181.381 0.570043 180.693C0.544043 180.006 0.326045 177.224 0.0860454 174.513C-0.179954 171.504 0.182043 168.516 1.01604 166.845C1.86704 165.139 2.02804 163.754 1.44304 163.169C0.858044 162.584 1.47005 161.082 3.06704 159.185C4.47604 157.51 5.37804 155.483 5.07004 154.681C4.76204 153.879 5.63704 151.884 7.01304 150.248C8.71604 148.225 9.33104 146.567 8.93704 145.06C8.55104 143.581 9.07404 142.086 10.516 140.55C11.798 139.186 12.422 137.597 12.053 136.636C11.66 135.613 12.4 134.122 14.066 132.578C15.912 130.867 16.313 129.979 15.408 129.608C14.506 129.238 14.921 128.341 16.785 126.629C18.83 124.752 19.18 123.901 18.285 122.987C17.39 122.072 17.789 121.254 19.994 119.479C21.577 118.206 22.575 116.684 22.213 116.098C21.85 115.511 22.719 114.267 24.145 113.333C26.113 112.043 26.421 111.427 25.427 110.77C24.39 110.085 24.489 109.62 25.904 108.536C26.888 107.784 27.563 106.591 27.404 105.887C27.246 105.183 28.053 104.116 29.198 103.517C30.342 102.918 31.092 101.868 30.864 101.185C30.637 100.502 31.218 99.9427 32.156 99.9427C33.511 99.9427 33.621 99.6527 32.691 98.5317C31.842 97.5087 31.825 96.9327 32.628 96.4357C33.369 95.9777 33.149 95.3207 31.965 94.4547C30.464 93.3577 30.397 92.9127 31.527 91.5507C32.682 90.1597 32.576 89.9427 30.739 89.9427C28.36 89.9427 28.027 88.9327 29.817 87.1427C30.75 86.2097 30.624 85.9427 29.25 85.9427C27.937 85.9427 27.646 85.4277 28.117 83.9427C28.506 82.7177 28.297 81.9427 27.577 81.9427C26.931 81.9427 26.633 81.3807 26.914 80.6927C28.785 76.1167 28.796 75.9427 27.224 75.9427C25.079 75.9427 25.173 74.3277 27.367 73.4827C29.034 72.8407 29.034 72.7617 27.367 71.8257C25.008 70.5017 25.163 69.2217 27.783 68.3897L29.95 67.7027L27.533 65.8447C25.709 64.4417 25.516 63.9817 26.745 63.9647C27.64 63.9527 28.906 63.2987 29.559 62.5127C30.509 61.3687 30.333 60.8607 28.682 59.9777C25.867 58.4707 26.09 57.2917 29.342 56.4757L32.068 55.7917L29.604 53.9327L27.14 52.0747L29.781 51.0707C33.121 49.8007 34.207 48.1067 32.18 47.3287C29.843 46.4317 30.289 45.2417 33.24 44.5017C35.691 43.8857 35.744 43.7567 34.049 42.5167C32.364 41.2847 32.471 41.0697 35.572 39.4657C38.157 38.1297 38.594 37.5337 37.513 36.8227C36.399 36.0907 36.68 35.4827 38.9 33.8167C41.037 32.2127 41.427 31.4187 40.579 30.3977C39.721 29.3637 40.215 28.6837 42.796 27.3437C44.623 26.3957 45.555 25.4307 44.867 25.1977C42.705 24.4677 43.494 23.3887 47.159 22.0637C49.971 21.0467 50.575 20.3877 50.092 18.8627C49.625 17.3917 49.966 16.9427 51.55 16.9427C52.687 16.9427 53.617 16.4927 53.617 15.9427C53.617 15.3927 54.79 14.9427 56.224 14.9427C58.13 14.9427 58.676 14.5397 58.255 13.4427C57.837 12.3527 58.371 11.9427 60.207 11.9427C61.638 11.9427 62.467 11.5087 62.117 10.9427C61.764 10.3717 62.642 9.94272 64.165 9.94272C66.124 9.94272 66.678 9.54472 66.255 8.44272C65.823 7.31672 66.42 6.94272 68.648 6.94272C70.631 6.94272 71.617 6.44072 71.617 5.43072C71.617 4.21972 72.436 4.04972 75.731 4.57672C79.605 5.19672 79.805 5.10972 79.163 3.08872C78.353 0.536722 78.783 0.46072 82.667 2.46872ZM99.649 5.19272C99.631 6.15572 99.309 6.94272 98.931 6.94272C98.554 6.94272 97.204 5.96472 95.931 4.76871C94.005 2.95772 93.617 2.86872 93.617 4.23372C93.617 5.97272 96.95 8.26472 99.867 8.53271C100.83 8.62072 102.067 8.74872 102.617 8.81772C103.167 8.88672 103.617 9.69572 103.617 10.6167C103.617 12.0027 104.048 11.8867 106.117 9.94272C108.914 7.31472 109.392 5.70772 107.117 6.58072C106.126 6.96172 105.617 6.54572 105.617 5.35872C105.617 3.69372 105.51 3.70472 104.179 5.50172C102.758 7.41972 102.723 7.41872 101.211 5.44272C99.845 3.65772 99.677 3.63072 99.649 5.19272ZM91.254 6.43772C91.899 8.11872 95.638 10.5267 95.586 9.22772C95.568 8.79572 94.452 7.64072 93.105 6.66072C91.067 5.17772 90.756 5.14072 91.254 6.43772ZM108.591 12.9427C109.127 12.9427 110.264 11.5927 111.117 9.94272C112.74 6.80372 112.296 6.31672 109.367 8.02272C107.526 9.09472 106.92 12.9427 108.591 12.9427ZM64.676 31.9107C65.715 31.8877 65.575 31.4697 64.176 30.4107C61.942 28.7207 59.617 28.4827 59.617 29.9427C59.617 30.4927 60.319 30.9427 61.176 30.9427C62.033 30.9427 62.446 31.4107 62.092 31.9837C61.738 32.5557 60.587 32.7807 59.533 32.4837C55.4309 31.326 53.8721 30.8697 53.7668 31.0945C53.6979 31.2414 54.2493 31.679 55.117 32.4017C57.036 33.9987 56.955 34.0427 53.117 33.4817C49.396 32.9387 49.253 33.0037 51.058 34.4197C52.942 35.8977 52.928 35.9427 50.558 35.9577C47.106 35.9797 44.678 37.6597 46.448 38.8017C47.389 39.4087 46.803 39.8617 44.448 40.3487C41.276 41.0047 41.21 41.1067 43.058 42.4897C44.569 43.6207 44.659 43.9427 43.463 43.9427C42.618 43.9427 41.112 44.8427 40.117 45.9427C38.355 47.8897 38.371 47.9437 40.712 47.9747C42.925 48.0037 42.977 48.1127 41.367 49.3347C40.404 50.0657 39.617 51.1387 39.617 51.7197C39.617 52.3007 39.055 53.0027 38.367 53.2807C37.44 53.6547 37.469 53.8047 38.482 53.8637C39.569 53.9267 39.514 54.4517 38.209 56.4427C36.674 58.7847 36.683 58.9437 38.344 58.9577C39.795 58.9707 39.856 59.1387 38.681 59.8817C37.534 60.6077 37.492 61.0877 38.473 62.2697C39.447 63.4427 39.434 63.8557 38.409 64.2697C37.403 64.6747 37.449 65.0247 38.617 65.8517C39.864 66.7337 39.748 66.9147 37.926 66.9277C35.58 66.9437 33.616 68.8877 35.808 69.0237C36.528 69.0687 35.767 69.7237 34.117 70.4787C31.335 71.7527 31.289 71.8557 33.478 71.8977L35.839 71.9427L33.478 73.9097C31.371 75.6647 31.319 75.8797 32.989 75.9097C34.327 75.9327 34.59 76.2997 33.909 77.1927C32.592 78.9197 33.117 85.0157 34.665 85.9727C35.364 86.4047 36.506 86.5387 37.203 86.2707C38.068 85.9397 38.298 86.4457 37.927 87.8637C37.546 89.3237 37.856 89.9427 38.969 89.9427C39.922 89.9427 40.339 90.5047 40.013 91.3527C39.687 92.2017 40.302 93.0257 41.559 93.4247C42.707 93.7887 43.389 94.5027 43.075 95.0107C42.761 95.5187 43.667 96.4637 45.089 97.1117C46.867 97.9217 47.291 98.5257 46.448 99.0477C45.609 99.5657 46.073 100.194 47.919 101.035C52.175 102.974 51.29 104.512 46.229 103.972C45.191 103.861 44.026 104.281 43.641 104.904C43.161 105.681 42.507 105.472 41.562 104.24C40.803 103.252 40.577 102.777 41.058 103.184C41.539 103.592 42.544 103.419 43.291 102.799C44.394 101.883 44.155 101.416 42.018 100.307C38.539 98.5017 36.533 98.5587 37.255 100.443C37.62 101.393 37.242 101.943 36.224 101.943C35.34 101.943 34.617 102.362 34.617 102.873C34.617 103.385 33.604 103.958 32.367 104.147C31.13 104.336 30.245 105.09 30.402 105.822C30.559 106.554 30.166 107.781 29.53 108.548C28.636 109.625 28.682 109.943 29.73 109.943C30.478 109.943 29.638 110.955 27.864 112.193C26.09 113.431 24.825 114.954 25.053 115.578C25.28 116.203 24.143 117.981 22.526 119.53C20.083 121.871 19.842 122.49 21.101 123.194C22.361 123.899 22.154 124.446 19.866 126.46C18.136 127.983 17.65 128.892 18.554 128.911C19.498 128.932 19.004 129.973 17.117 131.943C14.726 134.438 14.546 134.943 16.046 134.943C17.473 134.943 17.073 135.803 14.124 139.067C11.466 142.009 10.753 143.409 11.634 143.953C12.539 144.513 12.02 145.95 9.69504 149.33C7.94904 151.867 7.00604 153.943 7.59904 153.943C8.19204 153.943 7.65104 155.357 6.39704 157.086C4.87604 159.183 4.51004 160.368 5.29804 160.647C6.13404 160.942 5.95104 161.993 4.66804 164.253C2.57304 167.944 1.14204 174.355 2.61704 173.443C3.21304 173.074 3.34704 174.115 2.96304 176.143L2.34004 179.443L5.47804 176.506C8.25004 173.913 8.62104 173.796 8.64904 175.506C8.68004 177.42 8.69804 177.42 10.149 175.502C12.281 172.683 11.957 171.645 9.11704 172.188C6.91604 172.608 6.61704 172.319 6.61704 169.772C6.61704 166.465 10.654 163.949 11.653 166.633C12.079 167.778 12.59 167.631 14.143 165.914L16.097 163.755L17.212 166.484L18.327 169.213L19.564 165.828C20.658 162.836 20.889 162.674 21.557 164.435C22.214 166.167 22.487 165.946 23.647 162.738C24.38 160.709 25.299 159.247 25.69 159.488C26.08 159.729 27.68 156.913 29.245 153.229C32.173 146.341 35.966 140.943 37.88 140.943C38.477 140.943 38.043 141.955 36.916 143.193C32.963 147.533 31.244 152.684 34.117 151.581C35.783 150.942 36.193 152.469 34.617 153.443C32.959 154.467 33.494 156.204 35.258 155.527C36.683 154.98 36.722 155.131 35.556 156.67C34.817 157.645 33.325 159.456 32.24 160.693C30.27 162.941 30.27 162.943 32.443 162.943C33.652 162.943 34.617 163.572 34.617 164.36C34.617 165.139 35.167 165.96 35.839 166.184C37.453 166.722 32.679 172.823 30.617 172.857C29.455 172.877 29.511 172.653 30.867 171.863C32.689 170.802 33.322 166.943 31.674 166.943C29.823 166.943 27.664 171.284 28.285 173.757C28.743 175.581 28.545 176.08 27.508 175.72C26.743 175.453 26.256 174.467 26.425 173.528C26.714 171.926 26.575 171.924 24.175 173.497C21.341 175.354 20.701 177.232 23.233 176.26C24.61 175.732 24.679 175.959 23.698 177.791C23.065 178.975 21.914 179.943 21.141 179.943C20.368 179.943 19.483 180.351 19.175 180.85C18.866 181.349 19.627 181.494 20.866 181.173C22.88 180.65 22.76 180.997 19.721 184.467C17.853 186.6 16.818 188.51 17.421 188.711C18.169 188.96 18.216 189.868 17.567 191.575C16.14 195.328 16.348 196.158 18.435 195.041C20.046 194.178 20.203 194.429 19.818 197.255C19.463 199.865 19.623 200.216 20.701 199.193C22.818 197.182 23.193 197.695 22.779 202.039C22.407 205.943 22.488 206.082 24.503 205.004C26.359 204.011 26.617 204.143 26.617 206.082V208.292L29.009 206.044C30.653 204.5 31.532 204.188 31.818 205.047C32.048 205.735 32.771 205.966 33.426 205.561C35.472 204.297 34.732 202.943 31.995 202.943C29.777 202.943 29.564 202.711 30.617 201.443C32.089 199.67 34.295 199.477 34.828 201.075C35.364 202.683 41.617 199.313 41.617 197.417C41.617 195.74 40.045 195.442 39.117 196.943C37.954 198.825 35.78 198.036 36.33 195.932C36.923 193.663 41.784 191.943 42.398 193.785C42.61 194.422 43.379 194.943 44.107 194.943C44.937 194.943 45.235 195.687 44.907 196.943C44.317 199.2 44.894 199.4 47.683 197.908C51.326 195.958 49.857 199.869 46.117 202.076C42.331 204.309 40.933 207.915 44.617 205.943C46.213 205.089 46.617 205.183 46.617 206.408C46.617 208.416 48.497 208.362 50.788 206.288C52.065 205.133 52.617 205.017 52.617 205.903C52.617 206.832 53.289 206.733 55.117 205.535C56.696 204.5 57.617 204.317 57.617 205.037C57.617 205.684 58.481 205.95 59.617 205.653C61.084 205.27 61.617 205.623 61.617 206.978C61.617 209.818 63.122 210.12 65.999 207.857L68.617 205.798V207.977C68.617 209.504 69.066 209.985 70.117 209.581C71.118 209.197 71.617 209.622 71.617 210.857C71.617 212.272 72.309 212.674 74.548 212.562C76.16 212.48 77.81 212.083 78.215 211.679C79.695 210.199 80.659 210.996 79.656 212.871C77.526 216.85 81.174 219.238 85.367 216.609C86.152 216.117 86.617 216.362 86.617 217.269C86.617 218.063 87.673 219.405 88.964 220.25C91.221 221.73 91.292 221.696 90.847 219.365C90.232 216.151 91.202 216.296 93.045 219.693L94.537 222.443L94.577 219.538C94.616 216.694 94.659 216.671 96.623 218.449C99.162 220.747 100.288 219.712 98.801 216.447C97.335 213.231 97.924 213.283 101.041 216.645C102.419 218.131 103.86 219.034 104.242 218.651C104.625 218.268 104.191 217.13 103.278 216.12C102.364 215.111 101.632 213.871 101.65 213.364C101.669 212.858 102.513 213.436 103.526 214.65C104.54 215.865 105.721 216.54 106.152 216.15C106.583 215.761 106.69 216.134 106.39 216.979C106.024 218.01 106.464 218.514 107.731 218.514C109.955 218.514 110.38 214.165 108.367 211.996C107.367 210.919 107.367 210.791 108.367 211.355C109.139 211.791 109.617 211.452 109.617 210.467C109.617 209.166 109.997 209.076 111.681 209.977C113.196 210.788 114.108 210.78 115.111 209.948C116.176 209.064 116.739 209.303 117.664 211.03C118.673 212.916 118.616 213.157 117.284 212.646C116.199 212.229 115.89 212.49 116.275 213.494C116.581 214.291 116.333 214.943 115.724 214.943C115.115 214.943 114.617 214.32 114.617 213.56C114.617 212.799 113.605 211.921 112.367 211.609C110.471 211.132 110.359 211.231 111.653 212.243C112.498 212.903 113.028 214.232 112.829 215.196C112.409 217.24 115.772 218.978 116.415 217.05C116.701 216.19 117.602 216.519 119.28 218.096C121.12 219.825 121.563 219.967 121.066 218.669C120.701 217.72 120.853 216.943 121.403 216.943C121.953 216.943 122.662 217.618 122.979 218.443C123.295 219.268 124.004 219.943 124.554 219.943C125.104 219.943 125.275 219.216 124.934 218.328C124.433 217.02 124.753 216.852 126.617 217.443C128.54 218.053 128.808 217.884 128.245 216.417C127.677 214.936 127.811 214.859 129.094 215.924C131.211 217.681 131.055 220.019 128.867 219.328C127.601 218.928 127.769 219.351 129.478 220.859C132.474 223.504 133.617 223.496 133.617 220.828C133.617 218.76 133.677 218.753 136.316 220.481C138.171 221.697 139.136 221.887 139.401 221.09C139.614 220.452 140.199 220.185 140.702 220.496C141.205 220.807 141.617 220.584 141.617 220.002C141.617 219.42 140.99 218.943 140.224 218.943C139.458 218.943 138.572 218.268 138.255 217.443C137.191 214.668 140.887 215.845 143.754 219.193L146.536 222.443L146.576 219.67C146.617 216.898 146.618 216.897 149.281 218.643L151.946 220.388L151.241 217.581C150.551 214.831 150.583 214.806 152.799 216.358C155.86 218.502 156.536 218.354 155.85 215.693C155.333 213.689 155.453 213.593 156.944 214.815C158.433 216.037 158.617 215.895 158.617 213.53C158.617 211.126 158.821 210.982 160.752 212.015C162.73 213.074 162.839 212.965 162.233 210.551C161.728 208.537 161.951 207.943 163.215 207.943C164.373 207.943 164.693 207.343 164.312 205.886C163.847 204.107 163.989 204.006 165.357 205.136C166.749 206.286 166.875 206.105 166.406 203.635C165.988 201.436 166.194 200.951 167.356 201.396C168.831 201.962 168.82 201.856 166.91 197.182C166.571 196.353 166.947 196.132 168.006 196.539C170.126 197.352 170.1 195.134 167.962 192.772C166.404 191.05 166.442 190.943 168.617 190.943C170.864 190.943 170.877 190.888 169.117 188.943C167.254 186.884 164.617 186.243 164.617 187.849C164.617 188.99 160.612 188.059 158.617 186.454C155.211 183.714 154.279 183.544 154.861 185.769C155.32 187.522 155.122 187.747 153.769 187.017C152.155 186.147 149.484 183.37 146.57 179.529C145.209 177.736 145.255 177.689 147.306 178.782C148.907 179.635 149.681 179.649 150.184 178.834C150.892 177.69 148.998 175.986 146.989 175.958C146.369 175.95 145.248 175.203 144.497 174.299C143.284 172.837 143.382 172.734 145.375 173.366C148.424 174.334 148.209 173.502 144.117 168.508C140.05 163.545 139.733 162.413 142.867 164.044L145.117 165.214L142.762 162.653C141.467 161.244 140.656 159.688 140.96 159.196C141.265 158.704 140.657 156.893 139.609 155.171C138.168 152.8 138.059 152.175 139.161 152.598C141.089 153.338 141.028 151.031 139.037 147.916L137.457 145.443L139.603 147.886C140.8 149.247 141.537 151.14 141.27 152.162C141.002 153.189 141.791 155.195 143.063 156.719C144.313 158.217 146.034 160.793 146.887 162.443C147.74 164.093 149.829 166.765 151.528 168.38C154.255 170.973 154.622 171.09 154.664 169.38C154.693 168.143 155.558 169.07 157.057 171.943C159.739 177.086 163.595 181.123 163.653 178.848C163.675 177.969 164.517 178.399 165.903 179.997C167.121 181.402 169.467 183.384 171.117 184.402C174.061 186.218 174.087 186.217 172.519 184.348C169.359 180.581 169.242 179.54 172.218 181.659C174.394 183.208 175.636 183.512 176.904 182.802C178.122 182.121 179.279 182.293 180.845 183.39C183.359 185.151 185.039 185.435 184.117 183.943C183.777 183.393 183.982 182.943 184.571 182.943C185.253 182.943 185.093 181.624 184.13 179.32C182.775 176.076 182.776 175.83 184.141 176.963C186.623 179.023 187.145 177.134 184.788 174.625C182.213 171.885 182.1 171.199 184.151 170.766C185.33 170.518 184.981 169.674 182.644 167.123C180.183 164.438 179.986 163.925 181.61 164.441C184.619 165.396 184.047 164.039 179.867 160.305C177.531 158.219 176.871 157.213 178.117 157.637C179.95 158.261 179.996 158.156 178.664 156.38C177.866 155.315 176.291 153.358 175.164 152.032C174.038 150.706 173.68 149.945 174.367 150.341C176.824 151.757 175.556 149.276 172.12 145.946C169.65 143.552 168.985 142.334 169.853 141.797C170.739 141.25 170.296 140.218 168.268 138.101C166.225 135.968 165.819 135.013 166.786 134.614C167.722 134.228 167.227 133.306 165.117 131.509C162.815 129.548 162.524 128.952 163.867 128.948C166.394 128.941 166.017 127.252 163.057 125.312C161.261 124.135 160.862 123.41 161.719 122.88C162.582 122.347 162.086 121.374 160.029 119.566C158.427 118.158 157.68 116.992 158.367 116.975C160.456 116.922 159.767 115.333 157.137 114.134C155.644 113.454 154.87 112.447 155.193 111.605C155.528 110.733 154.86 109.968 153.424 109.574C151.633 109.084 151.426 108.744 152.499 108.052C153.588 107.351 153.425 107.017 151.735 106.48C150.554 106.106 149.846 105.381 150.161 104.871C150.477 104.361 150.274 103.943 149.71 103.943C148.23 103.943 141.178 107.305 140.782 108.199C140.597 108.615 139.958 108.654 139.362 108.285C138.71 107.883 138.493 108.18 138.818 109.029C139.483 110.765 133.944 111.406 130.438 110L128.117 109.07L130.426 109.006C131.696 108.972 132.497 108.558 132.206 108.087C131.915 107.617 132.863 107.458 134.311 107.735C136.449 108.144 136.825 107.929 136.312 106.591C135.828 105.328 136.271 104.943 138.207 104.943C139.638 104.943 140.467 104.509 140.117 103.943C139.777 103.393 140.452 102.943 141.617 102.943C142.782 102.943 143.489 102.544 143.187 102.057C142.886 101.569 143.608 100.917 144.793 100.607C146.611 100.132 146.746 99.8027 145.659 98.4937C144.565 97.1757 144.691 96.9427 146.495 96.9427C148.874 96.9427 149.207 95.9327 147.417 94.1427C146.484 93.2097 146.761 92.9357 148.667 92.9107C151.037 92.8797 151.054 92.8307 149.176 91.4107C147.334 90.0177 147.329 89.9427 149.081 89.9427C150.83 89.9427 150.837 89.8427 149.211 88.0467C147.883 86.5787 147.791 86.0397 148.806 85.6607C149.63 85.3527 149.194 84.8097 147.633 84.1987L145.15 83.2257L147.456 82.4937C149.659 81.7947 149.685 81.6747 148.035 79.8517C146.393 78.0377 146.4 77.9427 148.162 77.9427C149.605 77.9427 149.75 77.6757 148.817 76.7427C147.149 75.0747 147.319 73.9427 149.239 73.9427C150.523 73.9427 150.617 73.6477 149.691 72.5317C148.305 70.8617 149.905 69.4087 151.867 70.5557C152.555 70.9577 152.26 70.3087 151.212 69.1147C149.443 67.0977 149.709 66.4267 152.089 66.8987C152.624 67.0037 152.216 66.1577 151.184 65.0167C149.348 62.9877 149.348 62.9427 151.185 62.9427C152.844 62.9427 152.794 62.7547 150.755 61.3267C149.145 60.1987 148.765 59.3947 149.498 58.6617C150.231 57.9287 150.03 57.2187 148.832 56.3097C147.422 55.2377 147.384 54.9947 148.617 54.9427C149.759 54.8947 149.64 54.5017 148.117 53.2957C146.679 52.1577 146.48 51.5777 147.409 51.2307C149.044 50.6197 147.078 47.9427 144.995 47.9427C144.237 47.9427 143.73 47.4087 143.867 46.7557C144.005 46.1027 142.542 44.7747 140.617 43.8037C138.182 42.5757 137.7 42.0237 139.034 41.9907C142.647 41.8997 139.495 40.4867 134.306 39.8707C129.293 39.2757 129.227 39.2277 132.367 38.4737C134.154 38.0437 135.617 37.2987 135.617 36.8177C135.617 35.6027 126.454 35.7447 124.617 36.9887C123.5 37.7447 123.883 37.8667 126.117 37.4667C127.767 37.1717 128.442 37.2197 127.617 37.5737C126.792 37.9277 124.83 38.8677 123.257 39.6627C121.684 40.4577 120.698 40.6207 121.066 40.0257C122.014 38.4917 120.944 38.6827 118.082 40.5577C115.472 42.2677 114.77 41.3147 116.867 38.9077C117.555 38.1187 116.879 38.5567 115.367 39.8817C113.855 41.2067 112.617 42.8377 112.617 43.5067C112.617 44.1747 111.716 45.7837 110.615 47.0817C108.831 49.1857 108.669 49.2247 109.13 47.4427C109.415 46.3427 108.578 47.6927 107.272 50.4427C105.292 54.6077 104.914 56.9027 105.006 64.1927C105.067 69.0057 104.779 72.9427 104.367 72.9427C102.777 72.9427 103.716 76.5237 105.617 77.7107C108.625 79.5887 108.113 80.3737 102.367 82.6997C93.248 86.3907 88.895 87.1897 84.966 85.8927C81.812 84.8517 71.619 76.8717 70.788 74.7937C70.608 74.3417 71.577 73.4627 72.942 72.8407C74.549 72.1087 75.629 70.6047 76.005 68.5757C76.324 66.8527 76.863 64.0927 77.201 62.4427C77.54 60.7927 77.869 58.6557 77.931 57.6927C77.994 56.7297 78.349 55.9427 78.72 55.9427C79.795 55.9427 78.554 41.5477 77.383 40.4427C76.652 39.7527 76.572 39.8777 77.125 40.8477C77.654 41.7757 77.544 42.0157 76.798 41.5547C76.178 41.1717 74.9 39.2347 73.959 37.2517C72.515 34.2067 72.145 33.9377 71.589 35.5217C70.981 37.2567 70.836 37.2197 69.667 35.0357C68.931 33.6617 68.13 33.1117 67.753 33.7227C67.321 34.4227 66.46 34.3007 65.17 33.3577C63.781 32.3427 63.642 31.9337 64.676 31.9107ZM124.117 34.9117C124.667 34.9117 125.792 34.4757 126.617 33.9427C127.442 33.4097 127.667 32.9737 127.117 32.9737C126.567 32.9737 125.442 33.4097 124.617 33.9427C123.792 34.4757 123.567 34.9117 124.117 34.9117ZM113.617 33.9427C112.884 33.9427 112.584 34.2427 112.95 34.6097C113.317 34.9757 113.917 34.9757 114.284 34.6097C114.65 34.2427 114.35 33.9427 113.617 33.9427ZM150.426 44.9277C151.883 44.9137 151.91 44.7777 150.617 43.9427C148.659 42.6767 147.335 42.6767 148.117 43.9427C148.457 44.4927 149.496 44.9357 150.426 44.9277ZM112.617 72.7877C112.617 67.8587 113.877 65.4097 117.392 63.5017C120.875 61.6117 122.061 61.6037 125.628 63.4487C132.176 66.8347 131.761 77.7307 124.977 80.5657C120.408 82.4747 119.218 82.3197 115.694 79.3537C113.208 77.2617 112.617 76.0007 112.617 72.7877ZM119.176 68.9427C119.969 68.9427 120.617 68.2677 120.617 67.4427C120.617 65.9367 118.506 65.3867 117.311 66.5817C116.378 67.5157 117.505 68.9427 119.176 68.9427ZM89.617 70.9427C89.617 71.6757 89.917 71.9757 90.284 71.6097C90.65 71.2427 90.65 70.6427 90.284 70.2757C89.917 69.9097 89.617 70.2097 89.617 70.9427ZM86.391 75.1167C87.058 75.7837 87.633 75.7257 88.117 74.9427C88.516 74.2967 88.393 73.3187 87.843 72.7687C87.176 72.1017 86.601 72.1597 86.117 72.9427C85.718 73.5887 85.841 74.5667 86.391 75.1167ZM118.558 77.9427C119.14 77.9427 119.617 77.4927 119.617 76.9427C119.617 76.3927 119.419 75.9427 119.176 75.9427C118.933 75.9427 118.457 76.3927 118.117 76.9427C117.777 77.4927 117.976 77.9427 118.558 77.9427ZM55.144 104.899C54.61 105.763 51.617 105.285 51.617 104.336C51.617 104.12 52.544 103.943 53.676 103.943C54.808 103.943 55.469 104.373 55.144 104.899ZM42.564 107.591C44.785 108.743 45.335 108.67 47.005 107C48.654 105.35 49.102 105.286 50.335 106.518C51.119 107.302 52.29 107.946 52.938 107.949C53.587 107.953 52.768 108.659 51.119 109.518C49.471 110.378 47.149 110.896 45.961 110.668C44.316 110.354 43.942 110.636 44.396 111.849C44.91 113.225 44.762 113.256 43.316 112.08C41.884 110.916 41.551 110.951 41.024 112.325C40.685 113.208 40.005 113.683 39.512 113.378C37.844 112.347 36.432 114.016 37.691 115.532C38.567 116.588 38.572 116.943 37.708 116.943C37.073 116.943 36.259 116.156 35.898 115.193C35.536 114.23 34.538 112.895 33.679 112.225C32.343 111.183 32.515 111.002 34.867 110.975C36.38 110.957 37.505 110.596 37.367 110.173C37.23 109.749 37.772 108.699 38.573 107.839C39.815 106.506 40.404 106.47 42.564 107.591ZM140.235 158.943C139.96 158.943 139.457 158.493 139.117 157.943C138.777 157.393 138.724 156.943 138.999 156.943C139.274 156.943 139.777 157.393 140.117 157.943C140.457 158.493 140.51 158.943 140.235 158.943ZM12.753 171.607C13.81 172.881 14.181 172.715 15.379 170.428C17.122 167.102 16.636 166.541 13.759 168.556C11.929 169.838 11.746 170.393 12.753 171.607ZM148.867 171.844C151.109 173.221 151.11 173.219 149.212 171.085C147.174 168.793 146.617 168.497 146.617 169.702C146.617 170.12 147.629 171.084 148.867 171.844ZM156.862 181.943C157.42 181.943 157.311 181.28 156.617 180.443C155.932 179.618 154.922 178.943 154.372 178.943C153.814 178.943 153.923 179.606 154.617 180.443C155.302 181.268 156.312 181.943 156.862 181.943ZM24.683 183.984C23.673 183.359 23.801 182.932 25.247 182.098C29.009 179.929 33.397 182.616 31.594 185.985C30.425 188.171 30.5 188.224 34.003 187.655C37.273 187.125 37.527 187.243 36.645 188.891C36.109 189.893 34.575 190.988 33.236 191.324C31.898 191.66 30.034 192.23 29.094 192.59C27.589 193.168 27.532 192.971 28.614 190.948C29.726 188.87 29.652 188.7 27.841 189.174C24.709 189.993 22.925 188.482 24.617 186.443C25.738 185.092 25.75 184.643 24.683 183.984ZM148.255 186.943C147.481 186.943 146.11 185.818 145.209 184.443C143.872 182.402 143.83 181.943 144.979 181.943C145.753 181.943 147.124 183.068 148.025 184.443C149.362 186.484 149.404 186.943 148.255 186.943ZM49.245 186.911C48.624 186.894 48.991 186.219 50.058 185.411C52.552 183.525 53.198 183.538 51.617 185.443C50.932 186.268 49.865 186.929 49.245 186.911ZM161.659 186.244C162.979 186.589 163.591 186.361 163.346 185.614C163.134 184.97 161.933 184.293 160.678 184.109C157.911 183.704 158.726 185.477 161.659 186.244ZM55.663 194.784C56.187 192.954 56.617 191.286 56.617 191.077C56.617 190.869 57.365 191.316 58.28 192.071C59.617 193.174 60.027 193.19 60.377 192.151C60.694 191.21 61.164 191.152 62.111 191.938C63.51 193.099 62.995 196.943 61.441 196.943C60.923 196.943 60.807 196.445 61.183 195.836C61.974 194.556 57.883 195.576 55.913 197.15C54.986 197.89 54.929 197.344 55.663 194.784ZM34.052 194.968C30.237 196.418 29.827 196.125 32.617 193.943C35.424 191.747 36.617 191.456 36.617 192.968C36.617 193.531 35.463 194.431 34.052 194.968ZM26.503 202.014C24.898 203.005 24.168 202.479 25.086 200.993C25.454 200.398 26.222 200.199 26.793 200.552C27.465 200.967 27.362 201.482 26.503 202.014ZM38.867 205.763C40.104 205.587 41.117 204.774 41.117 203.957C41.117 202.368 38.483 201.41 37.318 202.575C35.744 204.15 36.678 206.073 38.867 205.763ZM122.717 212.533C121.672 211.587 120.608 210.017 120.353 209.043C119.982 207.624 120.377 207.366 122.346 207.742C123.696 208 124.333 208.5 123.762 208.854C123.099 209.263 123.06 210.03 123.654 210.969C125.237 213.471 124.715 214.341 122.717 212.533ZM35.89 213.201C34.978 212.897 35.059 212.199 36.21 210.442L37.75 208.091L33.184 208.267C29.167 208.422 28.617 208.714 28.617 210.693C28.617 213.191 29.6 213.56 31.417 211.743C32.35 210.81 32.617 211.151 32.617 213.278C32.617 215.804 32.789 215.921 34.864 214.811C36.204 214.093 36.619 213.444 35.89 213.201ZM45.544 213.665C42.159 214.942 42.105 214.835 44.143 210.893C45.921 207.455 45.281 207.241 41.01 209.845C37.357 212.072 35.557 216.414 38.7 215.417C40.033 214.994 40.617 215.286 40.617 216.376C40.617 218.43 41.28 218.353 44.344 215.943C47.612 213.372 48.923 213.403 48.09 216.029C47.504 217.876 47.661 217.99 49.467 217.023C51.89 215.727 53.169 213.943 51.676 213.943C49.818 213.943 50.536 212.226 53.096 210.549C55.574 208.925 55.574 208.925 54.531 211.669L53.488 214.413L56.022 212.033C59.132 209.11 58.566 207.943 54.037 207.943C51.39 207.943 50.326 208.487 49.522 210.251C48.944 211.521 47.154 213.057 45.544 213.665ZM144.846 216.943C144.288 216.943 143.572 216.268 143.255 215.443C142.939 214.618 142.836 213.943 143.026 213.943C143.216 213.943 143.932 214.618 144.617 215.443C145.335 216.308 145.432 216.943 144.846 216.943ZM39.117 227.943C39.942 227.258 40.617 226.528 40.617 226.321C40.617 226.113 39.942 225.943 39.117 225.943C38.292 225.943 37.617 226.673 37.617 227.565C37.617 228.894 37.888 228.963 39.117 227.943ZM54.617 228.943C55.167 228.943 55.617 228.493 55.617 227.943C55.617 227.393 55.167 226.943 54.617 226.943C54.067 226.943 53.617 227.393 53.617 227.943C53.617 228.493 54.067 228.943 54.617 228.943ZM107.617 228.516C107.617 230.354 110.737 230.085 111.367 228.193C111.612 227.46 110.922 226.943 109.7 226.943C108.472 226.943 107.617 227.589 107.617 228.516ZM102.874 231.534C103.126 231.785 103.901 231.305 104.597 230.467C105.386 229.517 105.462 228.943 104.798 228.943C103.59 228.943 102.181 230.84 102.874 231.534ZM119.058 231.943C119.915 231.943 120.617 231.493 120.617 230.943C120.617 230.393 120.194 229.943 119.676 229.943C119.158 229.943 118.457 230.393 118.117 230.943C117.777 231.493 118.201 231.943 119.058 231.943Z" fill="black"/>
<path fill-rule="evenodd" clip-rule="evenodd" d="M56.069 57.5887C52.942 60.9627 52.774 66.6017 55.69 70.3077C58.292 73.6167 64.353 73.9967 67.047 71.0207C69.783 67.9967 70.08 62.0137 67.684 58.1927C64.981 53.8807 59.757 53.6097 56.069 57.5887ZM66.617 60.4427C66.617 61.2677 65.969 61.9427 65.176 61.9427C63.505 61.9427 62.378 60.5157 63.311 59.5817C64.506 58.3867 66.617 58.9367 66.617 60.4427Z" fill="black"/>
<path d="M69.0046 79C68.9213 77.0105 70.0046 74 70.0046 74L74.5046 81L80.0046 86C80.0046 86 82.6053 87.841 84.5046 88.5C87.4619 89.5261 89.3764 89.1166 92.5046 89C94.4656 88.9269 95.5789 88.8778 97.5046 88.5C99.505 88.1075 100.728 87.9993 102.505 87C103.118 86.6549 103.5 86.4907 104.005 86C105.071 84.9636 104.844 83.8322 105.505 82.5C106.204 81.0897 107.492 80.5742 107.505 79C107.511 78.1949 106.734 77.7582 107.005 77C107.478 75.674 109.372 77.7418 110.005 79C110.813 80.6086 109.563 81.7884 109.005 83.5C108.408 85.3284 107.925 86.3115 107.005 88C105.994 89.8544 105.505 91 104.005 92.5C102.505 94 95.5046 94 95.5046 94C95.5046 94 89.9777 94.5389 86.5046 94C83.6951 93.5641 82.1636 93.0063 79.5046 92C77.7059 91.3193 76.472 91.243 75.0046 90C73.7229 88.9143 73.3933 87.9253 72.5046 86.5C70.7945 83.7573 69.1397 82.2293 69.0046 79Z" fill="#F9C22E" stroke="black"/>
<path d="M78.5 81C75.9469 79.0667 72 76 72 76V76.5C72 76.5 73.0707 79.5863 74.5 81C75.1941 81.6866 75.7254 81.9057 76.5 82.5C78.7017 84.1894 79.5806 85.6405 82 87C83.8334 88.0302 84.9321 88.6171 87 89C88.92 89.3556 90.0515 89.1265 92 89C95.9742 88.7419 98.6196 89.1057 102 87C102.829 86.4838 103.486 86.3301 104 85.5C104.325 84.975 104.271 84.5733 104.5 84C104.824 83.1892 105.045 82.7451 105.5 82C106.009 81.1669 106.958 80.9754 107 80C107.027 79.3831 106.5 78.5 106.5 78.5C106.5 78.5 105.893 78.8103 105.5 79C103.606 79.9135 102.464 80.2487 100.5 81C98.3653 81.8164 97.1169 82.1385 95 83C93.2187 83.7249 92.3895 84.6422 90.5 85C88.9652 85.2906 88.0507 85.188 86.5 85C84.9015 84.8062 83.967 84.6637 82.5 84C80.721 83.1952 80.0567 82.1788 78.5 81Z" fill="#A52A52" stroke="black"/>
<path d="M73.5 70L70 72.5V73L73 76.5L84 84L86.5 84.5H89L91.5 84L105.5 78.5L106.5 77.5L106 76.5L104.5 76L103 74L102.5 72.5V71L98.5 67.5L93 67H84.5L79.5 67.5L74.5 68.5L73.5 70Z" fill="#F9C22E" stroke="black"/>
</svg>
